<svg class="svg" style="enable-background:new 0 0 1024 1024" viewBox="0 0 1024 1024" xml:space="preserve" xmlns="http://www.w3.org/2000/svg"><path d="M918.9 346.8c-22.1-54.5-54.5-103.3-96.4-145.2-41.9-41.9-90.8-74.3-145.2-96.4C624.6 83.8 569 73 512 73s-112.6 10.8-165.2 32.1c-54.5 22.1-103.3 54.5-145.2 96.4-41.9 41.9-74.4 90.8-96.4 145.2C83.8 399.4 73 455 73 512s10.8 112.6 32.1 165.2c22.1 54.5 54.5 103.3 96.4 145.2 41.9 41.9 90.8 74.3 145.2 96.4C399.4 940.2 455 951 512 951s112.6-10.8 165.2-32.1c54.5-22.1 103.3-54.5 145.2-96.4 41.9-41.9 74.4-90.8 96.4-145.2C940.2 624.6 951 569 951 512s-10.8-112.6-32.1-165.2zM636.2 664.5 512 540.3 387.8 664.5l-28.3-28.3L483.7 512 359.5 387.8l28.3-28.3L512 483.7l124.2-124.2 28.3 28.3L540.3 512l124.2 124.2-28.3 28.3z"/></svg>